<?xml version="1.0" encoding="utf-8"?>
<!-- Generator: Adobe Illustrator 17.0.0, SVG Export Plug-In . SVG Version: 6.00 Build 0)  -->
<!DOCTYPE svg PUBLIC "-//W3C//DTD SVG 1.1//EN" "http://www.w3.org/Graphics/SVG/1.1/DTD/svg11.dtd">
<svg version="1.1" id="Layer_1" xmlns="http://www.w3.org/2000/svg" xmlns:xlink="http://www.w3.org/1999/xlink" x="0px" y="0px"
	 width="1098px" height="152px" viewBox="0 0 1098 152" enable-background="new 0 0 1098 152" xml:space="preserve" style="fill:#fff;">
<g>
	<path d="M64.726,128.307c-3.51,1.905-12.478,5.811-24.813,5.811c-22.352,0-30.628-16.057-30.628-31.506
		c0-28.209,20.59-56.908,49.818-56.908c8.267,0,16.033,2.814,17.798,4.396l-2.83,6.688c-3.704-1.715-8.967-3.858-16.199-3.858
		c-24.653,0-40.311,25.884-40.311,48.425c0,14.958,7.038,25.671,23.769,25.671c9.507,0,16.889-3.155,21.279-5.416L64.726,128.307z"
		/>
	<path d="M100.112,132.165l10.922-57.042c1.765-10.041,3.158-19.354,4.204-27.489h7.252c-0.887,5.969-1.603,11.985-2.834,19.053
		h0.529c5.275-11.804,14.083-20.959,25.185-20.959c1.233,0,2.996,0.142,3.882,0.324l-1.603,8.135
		c-0.88-0.372-2.113-0.372-3.876-0.372c-10.576,0-24.117,15.852-27.978,37.317l-7.758,41.032H100.112z"/>
	<path d="M244.842,47.634l-11.804,61.833c-1.603,8.436-2.648,16.002-3.157,22.698h-7.58l2.658-17.449h-0.354
		c-6.874,11.124-18.498,19.402-30.3,19.402c-9.159,0-22.72-3.716-22.72-25.007c0-3.716,0.534-7.946,1.597-13.385l9.159-48.092h7.92
		l-9.151,48.259c-1.073,5.273-1.605,9.179-1.605,13.219c0,10.736,4.413,17.757,16.755,17.757c11.78,0,28.345-13.709,32.01-33.245
		l8.653-45.989H244.842z"/>
	<path d="M330.395,128.307c-3.534,1.905-12.501,5.811-24.813,5.811c-22.38,0-30.646-16.057-30.646-31.506
		c0-28.209,20.607-56.908,49.814-56.908c8.29,0,16.024,2.814,17.793,4.396l-2.827,6.688c-3.68-1.715-8.973-3.858-16.199-3.858
		c-24.653,0-40.315,25.884-40.315,48.425c0,14.958,7.042,25.671,23.773,25.671c9.523,0,16.889-3.155,21.303-5.416L330.395,128.307z"
		/>
	<path d="M365.779,132.141l16.194-84.484h7.922L373.7,132.141H365.779z M389.894,30.398c-3.716,0-5.835-3.372-5.835-7.064
		c0.194-3.854,2.842-7.024,6.535-7.024c4.044,0,6.344,3.17,6.344,7.024c-0.352,3.692-2.656,7.064-6.886,7.064H389.894z"/>
	<path d="M476.141,132.141c-0.162-5.249,0.89-14.571,2.301-24.983h-0.352c-9.847,19.733-22.189,26.936-35.407,26.936
		c-14.776,0-23.398-11.986-23.398-26.936c0-30.106,23.236-61.43,57.038-61.43c6.886,0,14.456,1.028,19.568,2.467l-8.48,44.005
		c-3.158,17.077-4.044,31.316-3.692,39.941H476.141z M486.901,54.187c-2.119-0.878-5.645-1.605-12.151-1.605
		c-25.533,0-47.191,24.651-47.353,53.192c0,10.223,3.162,21.433,17.049,21.433c15.156,0,32.415-20.208,36.992-43.792L486.901,54.187
		z"/>
	<polygon points="525.795,132.165 549.569,7.162 557.676,7.162 533.717,132.165 	"/>
	<path d="M713.113,7.162l-19.54,101.956c-1.392,7.551-2.81,16.034-3.348,23.046h-7.226l2.838-18.658h-0.372
		c-7.922,12.523-18.658,20.611-32.201,20.611c-17.433,0-24.651-14.784-24.651-30.114c0-30.486,23.07-58.276,51.765-58.276
		c6.507,0,13.377,1.399,17.073,3.352l7.74-41.918H713.113z M695.874,56.646c-3.534-2.316-8.989-4.087-16.381-4.087
		c-23.604,0-42.796,24.469-42.796,50.749c0,10.365,2.996,23.923,18.67,23.923c13.741,0,30.099-15.843,33.976-36.803L695.874,56.646z
		"/>
	<path d="M789.881,127.231c-4.23,2.838-13.033,6.886-25.533,6.886c-21.493,0-29.418-16.405-29.418-33.134
		c0-25.141,19.03-55.255,44.199-55.255c15.334,0,21.837,9.479,21.837,19.33c0,22.73-27.466,27.323-57.228,26.77
		c-1.044,4.602-0.882,14.982,1.233,20.793c3.348,9.685,10.76,14.428,20.421,14.428c10.574,0,17.958-3.534,22.188-5.993
		L789.881,127.231z M792.877,65.438c0-8.459-6.522-12.879-15.148-12.879c-15.31,0-27.999,16.033-32.758,32.581
		c25.003,0.364,47.906-2.98,47.906-19.52V65.438z"/>
	<path d="M857.987,28.999l-3.514,18.634h21.469l-1.233,6.554h-21.655l-9.151,48.931c-1.071,5.629-1.767,9.827-1.767,15.148
		c0,5.606,2.81,8.965,8.435,8.965c2.834,0,5.135-0.363,6.879-0.878l0.723,6.317c-2.308,0.909-5.649,1.447-9.159,1.447
		c-11.27,0-15.148-7.946-15.148-15.361c0-5.06,0.696-10.175,1.925-15.986l9.341-48.583h-12.844l1.23-6.554h13.037l2.806-15.472
		L857.987,28.999z"/>
	<path d="M947.527,132.141c-0.186-5.249,0.838-14.571,2.304-24.983h-0.399c-9.847,19.733-22.165,26.936-35.36,26.936
		c-14.804,0-23.422-11.986-23.422-26.936c0-30.106,23.236-61.43,57.022-61.43c6.87,0,14.452,1.028,19.56,2.467l-8.46,44.005
		c-3.159,17.077-4.04,31.316-3.716,39.941H947.527z M958.268,54.187c-2.138-0.878-5.673-1.605-12.175-1.605
		c-25.517,0-47.167,24.651-47.353,53.192c0,10.223,3.158,21.433,17.049,21.433c15.148,0,32.442-20.208,37.016-43.792L958.268,54.187
		z"/>
	<path d="M1000.877,132.141l16.215-84.484h7.906l-16.176,84.484H1000.877z M1024.999,30.398c-3.676,0-5.815-3.372-5.815-7.064
		c0.19-3.854,2.838-7.024,6.511-7.024c4.088,0,6.365,3.17,6.365,7.024c-0.372,3.692-2.653,7.064-6.882,7.064H1024.999z"/>
	<polygon points="1056.223,132.165 1080.017,7.162 1088.101,7.162 1064.165,132.165 	"/>
</g>
</svg>
