<?xml version="1.0" encoding="utf-8"?>
<!-- Generator: Adobe Illustrator 17.0.0, SVG Export Plug-In . SVG Version: 6.00 Build 0)  -->
<!DOCTYPE svg PUBLIC "-//W3C//DTD SVG 1.1//EN" "http://www.w3.org/Graphics/SVG/1.1/DTD/svg11.dtd">
<svg version="1.1" id="Layer_1" xmlns="http://www.w3.org/2000/svg" xmlns:xlink="http://www.w3.org/1999/xlink" x="0px" y="0px"
	 width="214px" height="206px" viewBox="0 0 214 206" enable-background="new 0 0 214 206" xml:space="preserve">
<g>
	<path d="M76.241,4.869c-0.741,0-1.49,0.127-2.214,0.373C32.614,19.394,4.783,58.308,4.768,102.076
		c-0.014,43.797,27.818,82.736,69.26,96.892c4.384,1.501,8.996-1.928,8.996-6.423l-0.004-21.275c0-3.461-0.861-4.796-4.015-6.207
		c-25.188-11.252-40.831-35.373-40.827-62.955c-0.004-27.582,15.639-51.707,40.824-62.963c3.158-1.407,4.022-2.741,4.022-6.199
		V11.672C83.023,7.918,79.981,4.869,76.241,4.869z"/>
	<path d="M140.238,198.969c29.904-10.218,53.052-33.188,63.505-63.017c9.086-25.944,7.473-53.852-4.539-78.577
		c-12.015-24.729-32.957-43.243-58.97-52.134c-0.723-0.246-1.469-0.373-2.21-0.373c-3.74,0-6.781,3.049-6.781,6.803v21.275
		c-0.004,3.458,0.864,4.792,4.022,6.199c18.609,8.319,32.509,24.32,38.14,43.909c5.631,19.589,2.347,40.531-9.006,57.458
		c-7.628,11.383-16.612,18.952-29.134,24.551c-3.157,1.411-4.026,2.745-4.022,6.207l-0.004,21.275
		C131.236,197.037,135.84,200.466,140.238,198.969z"/>
</g>
</svg>
