<?xml version="1.0" encoding="utf-8"?>
<!-- Generator: Adobe Illustrator 17.0.0, SVG Export Plug-In . SVG Version: 6.00 Build 0)  -->
<!DOCTYPE svg PUBLIC "-//W3C//DTD SVG 1.1//EN" "http://www.w3.org/Graphics/SVG/1.1/DTD/svg11.dtd">
<svg version="1.1" id="Layer_1" xmlns="http://www.w3.org/2000/svg" xmlns:xlink="http://www.w3.org/1999/xlink" x="0px" y="0px"
	 width="1072px" height="206px" viewBox="-444.5 0 1072 206" enable-background="new -444.5 0 1072 206" xml:space="preserve">
<path d="M-354.189,150.557c-3.2,1.737-11.375,5.297-22.621,5.297c-20.377,0-27.922-14.639-27.922-28.722
	c0-25.717,18.771-51.88,45.417-51.88c7.537,0,14.617,2.566,16.226,4.008l-2.58,6.097c-3.377-1.564-8.175-3.517-14.768-3.517
	c-22.475,0-36.75,23.598-36.75,44.147c0,13.637,6.416,23.403,21.669,23.403c8.667,0,15.397-2.876,19.4-4.937L-354.189,150.557z"/>
<path d="M-321.929,154.074l9.958-52.003c1.609-9.154,2.879-17.644,3.832-25.061h6.611c-0.809,5.442-1.461,10.927-2.584,17.37h0.483
	c4.809-10.761,12.839-19.107,22.96-19.107c1.124,0,2.732,0.13,3.539,0.296l-1.461,7.416c-0.802-0.339-1.926-0.339-3.533-0.339
	c-9.642,0-21.987,14.451-25.506,34.02l-7.072,37.408H-321.929z"/>
<path d="M-189.985,77.01l-10.761,56.371c-1.461,7.691-2.415,14.588-2.878,20.693h-6.91l2.423-15.907h-0.323
	c-6.267,10.141-16.864,17.688-27.623,17.688c-8.35,0-20.713-3.388-20.713-22.798c0-3.388,0.486-7.244,1.456-12.203l8.35-43.844h7.22
	l-8.343,43.995c-0.979,4.807-1.463,8.368-1.463,12.051c0,9.788,4.024,16.188,15.275,16.188c10.739,0,25.841-12.498,29.182-30.308
	l7.889-41.927H-189.985z"/>
<path d="M-111.989,150.557c-3.222,1.737-11.397,5.297-22.621,5.297c-20.403,0-27.939-14.639-27.939-28.722
	c0-25.717,18.787-51.88,45.413-51.88c7.557,0,14.608,2.566,16.221,4.008l-2.577,6.097c-3.355-1.564-8.181-3.517-14.768-3.517
	c-22.475,0-36.754,23.598-36.754,44.147c0,13.637,6.42,23.403,21.673,23.403c8.682,0,15.397-2.876,19.421-4.937L-111.989,150.557z"
	/>
<path d="M-79.731,154.053l14.763-77.021h7.222l-14.763,77.021H-79.731z M-57.746,61.298c-3.388,0-5.319-3.074-5.319-6.44
	c0.177-3.514,2.591-6.404,5.957-6.404c3.687,0,5.784,2.89,5.784,6.404c-0.321,3.366-2.422,6.44-6.278,6.44H-57.746z"/>
<path d="M20.881,154.053c-0.148-4.786,0.811-13.284,2.098-22.776h-0.321c-8.977,17.99-20.228,24.556-32.279,24.556
	c-13.471,0-21.331-10.927-21.331-24.556c0-27.447,21.183-56.003,52-56.003c6.278,0,13.179,0.937,17.839,2.249l-7.73,40.117
	c-2.879,15.569-3.687,28.55-3.366,36.413H20.881z M30.691,82.985c-1.932-0.8-5.146-1.463-11.078-1.463
	c-23.277,0-43.022,22.474-43.17,48.493c0,9.32,2.883,19.54,15.543,19.54c13.817,0,29.551-18.423,33.724-39.923L30.691,82.985z"/>
<polygon points="66.149,154.074 87.822,40.114 95.214,40.114 73.371,154.074 "/>
<path d="M236.919,40.114l-17.813,92.95c-1.269,6.884-2.562,14.617-3.053,21.01h-6.588l2.588-17.01h-0.339
	c-7.222,11.417-17.01,18.79-29.357,18.79c-15.893,0-22.474-13.478-22.474-27.454c0-27.793,21.032-53.127,47.192-53.127
	c5.932,0,12.195,1.276,15.565,3.056l7.056-38.215H236.919z M221.203,85.227c-3.222-2.112-8.195-3.726-14.934-3.726
	c-21.519,0-39.015,22.308-39.015,46.266c0,9.449,2.732,21.81,17.021,21.81c12.527,0,27.44-14.444,30.975-33.552L221.203,85.227z"/>
<path d="M306.905,149.577c-3.856,2.588-11.882,6.278-23.277,6.278c-19.594,0-26.82-14.956-26.82-30.207
	c0-22.92,17.349-50.374,40.294-50.374c13.979,0,19.908,8.642,19.908,17.623c0,20.722-25.039,24.91-52.172,24.405
	c-0.951,4.195-0.804,13.659,1.124,18.956c3.052,8.829,9.81,13.154,18.617,13.154c9.64,0,16.372-3.222,20.228-5.463L306.905,149.577z
	 M309.637,93.242c0-7.712-5.946-11.741-13.81-11.741c-13.957,0-25.526,14.617-29.865,29.703
	c22.794,0.331,43.674-2.717,43.674-17.796V93.242z"/>
<path d="M368.996,60.022l-3.204,16.988h19.572l-1.124,5.975h-19.742l-8.343,44.608c-0.977,5.132-1.611,8.959-1.611,13.81
	c0,5.11,2.562,8.173,7.69,8.173c2.584,0,4.682-0.331,6.271-0.8l0.659,5.759c-2.105,0.829-5.15,1.319-8.35,1.319
	c-10.274,0-13.81-7.244-13.81-14.004c0-4.613,0.634-9.276,1.755-14.574l8.516-44.291h-11.709l1.121-5.975h11.885l2.559-14.105
	L368.996,60.022z"/>
<path d="M450.625,154.053c-0.169-4.786,0.764-13.284,2.101-22.776h-0.364c-8.977,17.99-20.207,24.556-32.236,24.556
	c-13.496,0-21.352-10.927-21.352-24.556c0-27.447,21.183-56.003,51.985-56.003c6.264,0,13.175,0.937,17.832,2.249l-7.712,40.117
	c-2.88,15.569-3.683,28.55-3.388,36.413H450.625z M460.417,82.985c-1.95-0.8-5.172-1.463-11.1-1.463
	c-23.263,0-43.001,22.474-43.17,48.493c0,9.32,2.879,19.54,15.543,19.54c13.81,0,29.576-18.423,33.746-39.923L460.417,82.985z"/>
<path d="M499.262,154.053l14.783-77.021h7.208l-14.747,77.021H499.262z M521.253,61.298c-3.352,0-5.301-3.074-5.301-6.44
	c0.173-3.514,2.588-6.404,5.935-6.404c3.726,0,5.802,2.89,5.802,6.404c-0.339,3.366-2.418,6.44-6.274,6.44H521.253z"/>
<polygon points="549.719,154.074 571.411,40.114 578.78,40.114 556.959,154.074 "/>
</svg>
