<svg xmlns="http://www.w3.org/2000/svg" width="44" height="44" viewBox="10.75 8 44 44" enable-background="new 10.75 8 44 44"><path fill="#F6364D" d="M32.75 10.716c10.64 0 19.284 8.644 19.284 19.284S43.39 49.284 32.75 49.284 13.466 40.64 13.466 30 22.11 10.716 32.75 10.716m0-2.216c-11.895 0-21.5 9.605-21.5 21.5s9.68 21.5 21.5 21.5c11.895 0 21.5-9.68 21.5-21.5 0-11.895-9.605-21.5-21.5-21.5zm7.573 11.637H25.25c-1.33 0-2.363 1.034-2.363 2.364v15c0 1.256 1.034 2.364 2.364 2.364h15c1.33 0 2.364-1.034 2.364-2.364V22.426c0-1.256-1.034-2.29-2.29-2.29zM36.63 22.87c0-.296.22-.517.516-.517h2.66c.296 0 .517.222.517.517v2.66c0 .296-.222.517-.517.517h-2.66c-.296 0-.517-.222-.517-.517v-2.66zm-3.843 3.325c2.07 0 3.768 1.7 3.768 3.768 0 2.07-1.7 3.768-3.768 3.768s-3.768-1.697-3.768-3.766 1.697-3.768 3.766-3.768zm7.684 10.787c0 .296-.22.517-.515.517H25.768c-.296 0-.517-.224-.517-.52v-8.57h1.85c-.148.518-.222 1.035-.222 1.553 0 3.325 2.66 5.985 5.985 5.985s5.986-2.66 5.986-5.986c0-.517-.075-1.108-.223-1.552h1.847v8.57z"/></svg>