<svg xmlns="http://www.w3.org/2000/svg" width="55.167" height="50" viewBox="21.333 13.333 55.167 50" enable-background="new 21.333 13.333 55.167 50"><path d="M38.958 30.674v13.284H58.54V30.674H38.96zm17.33 11.14H41.2V32.8l7.563 6.283 7.54-6.277-.01 9.01zM48.75 17.716c10.64 0 19.284 8.644 19.284 19.284S59.39 56.284 48.75 56.284 29.466 47.64 29.466 37 38.11 17.716 48.75 17.716m0-2.216c-11.895 0-21.5 9.605-21.5 21.5s9.68 21.5 21.5 21.5c11.895 0 21.5-9.68 21.5-21.5 0-11.895-9.605-21.5-21.5-21.5z"/></svg>